# xmcd
# 
# Track frame offsets:
#     150
#     12787
#     29407
#     46944
#     63806
#     79041
#     96173
#     113468
#     127271
#     142898
#     158579
#     170996
#     188820
# 
# Disc length: 2747
# 
# Revision: 6
# Processed by: cddbd v1.5.2PL0 Copyright (c) Steve Scherf et al.
# Submitted via: fre:ac v1.0.27
# 
DISCID=a10ab90d
DTITLE=Keith Urban - Ripcord
DYEAR=2016
DGENRE=Country
TTITLE0=Gone Tomorrow (Here Today)
TTITLE1=John Cougar, John Deere, John 3:16
TTITLE2=Wasted Time
TTITLE3=Habit Of You
TTITLE4=Sun Don't Let Me Down (featuring Nile Rodgers and Pitbull)
TTITLE5=Gettin' In The Way
TTITLE6=Blue Ain't Your Color
TTITLE7=The Fighter (featuring Carrie Underwood)
TTITLE8=Break On Me
TTITLE9=Boy Gets A Truck
TTITLE10=Your Body
TTITLE11=That Could Still Be Us
TTITLE12=Worry 'Bout Nothin'
EXTD=YEAR: 2016
EXTT0=
EXTT1=
EXTT2=
EXTT3=
EXTT4=
EXTT5=
EXTT6=
EXTT7=
EXTT8=
EXTT9=
EXTT10=
EXTT11=
EXTT12=
PLAYORDER=
